<?xml version="1.0" encoding="utf-8"?>
<!-- Generator: Adobe Illustrator 19.0.0, SVG Export Plug-In . SVG Version: 6.00 Build 0)  -->
<svg version="1.1" id="Layer_1" xmlns="http://www.w3.org/2000/svg" xmlns:xlink="http://www.w3.org/1999/xlink" x="0px" y="0px"
	 viewBox="0 0 800 800" style="enable-background:new 0 0 800 800;" xml:space="preserve">
<style type="text/css">
	.st0{fill:#FFFFFF;}
</style>
<g id="XMLID_1_">
	<g id="XMLID_19_">
		<path id="XMLID_20_" class="st0" d="M133.6,298.2c-10.1-9.6-22.5-12.1-31.8-12.1c-22.7,0-37.4,13.5-37.4,40.8
			c0,17.9,9.4,40,37.4,40c7.4,0,18.9-1.4,26.9-7.2v-17.9H93.4v-30.8h68.1v61.9c-8.8,17.7-33,27.3-59.9,27.3c-55.1,0-76-36.8-76-73.2
			S49.4,253,101.7,253c19.3,0,36.4,4,54.7,22.5L133.6,298.2z"/>
		<path id="XMLID_22_" class="st0" d="M312.7,396.3h-43.4l-32.4-45.2h-13.7v45.2h-39.4V257h68.1c35.6,0,54.1,22.9,54.1,48
			c0,17.1-6,31.6-29.5,42l36.2,47V396.3z M223.1,288.4v33.4h29.1c10.3,0,14.9-7.8,14.9-16.1c0-8.8-5-17.3-15.3-17.3H223.1z"/>
		<path id="XMLID_25_" class="st0" d="M459.8,257.2V335c0.2,41.2-24.9,64.3-65.7,64.3s-65.7-22.1-65.7-64.7v-77.4h39.2v77.4
			c0,21.9,10.5,31,26.5,31s26.5-9.6,26.5-30.6v-77.8H459.8z"/>
		<path id="XMLID_27_" class="st0" d="M525.4,358.7v37.6H486V257h67.7c37.4,0,55.9,23.5,55.9,50.7c0,28.5-18.7,50.5-55.9,50.9H525.4
			z M525.4,325.4h28.3c10.9,0,16.5-8,16.5-17.1s-5.8-17.5-16.5-17.5h-28.3V325.4z"/>
		<path id="XMLID_30_" class="st0" d="M696.8,399.7c-45.6,0-77.4-26.5-77.4-73c0-45.8,31.8-73,77.4-73c45.8,0,77.4,26.7,77.4,73
			C774.2,373.2,742.5,399.7,696.8,399.7z M696.8,287.2c-22.5,0-38,16.3-38,39.4c0,23.3,15.7,39.4,38,39.4c23.1,0,38-16.3,38-39.4
			C734.8,302.7,719.9,287.2,696.8,287.2z"/>
	</g>
	<g id="XMLID_5_">
		<path id="XMLID_6_" class="st0" d="M67,474.2H27v-32h119v32h-40.3v105.4H67V474.2z"/>
		<path id="XMLID_8_" class="st0" d="M245.1,557h-61.5l-9,22.6h-41.2L195,442.2h39.3l61.5,137.4h-41.6L245.1,557z M214.5,480.6
			l-17.7,43.8H232L214.5,480.6z"/>
		<path id="XMLID_11_" class="st0" d="M421.6,497.7l-35.1,41.6h-6.9l-34.4-41.4v81.7h-38.5V442.2h40.6l36.1,46.5l36.1-46.5h40.4
			v137.4h-38.5V497.7z"/>
		<path id="XMLID_13_" class="st0" d="M488,579.6V442.2h38.7v137.4H488z"/>
		<path id="XMLID_15_" class="st0" d="M669.4,497.7l-35.1,41.6h-6.9L593,497.9v81.7h-38.5V442.2h40.6l36.1,46.5l36.1-46.5h40.4
			v137.4h-38.5V497.7z"/>
		<path id="XMLID_17_" class="st0" d="M735.8,579.6V442.2h38.7v137.4H735.8z"/>
	</g>
</g>
</svg>
