<?xml version="1.0" encoding="utf-8"?>
<!-- Generator: Adobe Illustrator 19.0.0, SVG Export Plug-In . SVG Version: 6.00 Build 0)  -->
<svg version="1.1" id="Layer_1" xmlns="http://www.w3.org/2000/svg" xmlns:xlink="http://www.w3.org/1999/xlink" x="0px" y="0px"
	 viewBox="0 0 800 800" style="enable-background:new 0 0 800 800;" xml:space="preserve">
<style type="text/css">
	.st0{fill:#FFFFFF;stroke:#FFFFFF;stroke-width:2;stroke-miterlimit:10;}
	.st1{fill:#FFFFFF;stroke:#FFFFFF;stroke-miterlimit:10;}
</style>
<g id="XMLID_1_">
	<g id="XMLID_7_">
		<path id="XMLID_8_" class="st0" d="M69,328.9v65.9c0,3.4,0.3,6.4,1,9.1c0.7,2.7,1.6,5.1,2.9,7.3c1.3,2.1,3.3,3.7,5.8,4.9
			c2.5,1.2,5.6,1.7,9.4,1.7c0.1,0,0.2,0,0.3,0c0.1,0,0.2,0,0.3,0c0.1,0,0.2,0,0.2,0c0,0,0.1,0,0.2,0c0.1-0.1,0.2-0.1,0.3-0.1
			c0.1,0,0.2,0,0.3,0c0.1,0,0.2,0,0.3,0c0.1,0,0.2,0,0.2,0c0,0,0.1,0,0.2,0c0.1,0,0.2,0,0.3,0l11.4-0.3v12.5H86.1
			c-0.9,0-1.8,0-2.8-0.1c-1,0-2-0.1-3.1-0.2c-1.1-0.2-2.1-0.4-3.2-0.7c-1.1-0.3-2.2-0.6-3.4-1c-2.3-0.9-4.5-2-6.6-3.5
			c-2.1-1.5-4.1-3.3-6-5.4c-1.8-2.1-3.2-4.7-4.2-7.7c-1-3-1.4-6.6-1.4-10.6v-71.8H69z"/>
		<path id="XMLID_10_" class="st0" d="M109.2,379.3c1.8-4.2,4.5-7.9,8.1-11.1c3.7-3.2,7.5-5.5,11.6-7.1c4.1-1.6,8.4-2.4,12.9-2.4
			c0.2,0,0.4,0,0.6,0c0.2,0,0.5,0,0.6,0c0.2,0.1,0.4,0.1,0.6,0.1c0.2,0,0.5,0,0.8,0c0.2,0,0.4,0,0.6,0c0.2,0,0.5,0,0.8,0
			c0.2,0.1,0.4,0.1,0.6,0.1c0.2,0,0.5,0,0.6,0c3.8,0.6,7.5,1.7,11,3.4c3.5,1.7,6.9,3.9,10.2,6.7c3.2,2.9,5.6,6.5,7.2,10.8
			c1.6,4.3,2.5,9.4,2.5,15.1c0,0.4,0,0.8,0,1.2c0,0.4,0,0.7-0.1,1c0,0.4,0,0.8-0.1,1.2c0,0.4-0.1,0.8-0.1,1.2
			c-0.1,0.8-0.2,1.5-0.4,2.3c-0.1,0.8-0.3,1.5-0.5,2.3c-0.9,3.5-2.2,6.8-4,9.9c-1.8,3.1-4.1,6.1-6.8,8.9c-2.7,2.8-5.9,4.9-9.7,6.2
			s-7.9,2-12.5,2c-6.5,0-12.2-0.9-16.9-2.7c-4.8-1.8-8.6-4.5-11.6-8.1c-3-3.6-5.2-7.7-6.7-12.1c-1.5-4.4-2.2-9.2-2.2-14.3v-0.3
			C106.5,388.3,107.4,383.6,109.2,379.3z M120.2,395.7c0,0.6,0,1.3,0.1,1.9c0.1,0.7,0.2,1.3,0.4,1.9c0.1,0.6,0.3,1.3,0.4,1.9
			c0.5,2.1,1.2,4.2,2.3,6.2c1.1,2,2.4,3.9,3.9,5.8c1.6,1.8,3.6,3.2,6.1,4c2.4,0.9,5.2,1.3,8.5,1.3c3.1,0,6-0.4,8.6-1.3
			c2.7-0.9,5.1-2.2,7.3-3.9c2.2-1.7,3.9-4.3,5-7.6c1.1-3.3,1.7-7.4,1.7-12.2c0-3.4-0.5-6.4-1.4-9.2c-1-2.7-2.4-5.2-4.3-7.3
			c-1.9-2-4.3-3.6-7.1-4.6c-2.8-1.1-6.1-1.6-9.7-1.6c-3.5,0-6.4,0.5-8.9,1.4c-2.5,0.9-4.6,2.3-6.2,4.3c-1.6,1.8-3,3.8-4,5.9
			c-1,2.1-1.7,4.3-2.1,6.5c-0.1,0.4-0.2,0.8-0.3,1.2c-0.1,0.4-0.1,0.8-0.1,1.2c0,0.4,0,0.8,0,1.2c0,0.4,0,0.8,0,1.2v-0.3
			C120.2,394.4,120.2,395.1,120.2,395.7z"/>
		<path id="XMLID_13_" class="st0" d="M215.4,417.4c0.2,0.2,0.4,0.3,0.6,0.3c0.2,0,0.4,0,0.6,0c0.2,0,0.4,0,0.6,0c0.2,0,0.4,0,0.6,0
			c0.2,0.1,0.4,0.1,0.6,0.1c0.2,0,0.4,0,0.6,0c0.2,0,0.4,0,0.6,0c0.2,0,0.4,0,0.6,0c1.2,0,2.2-0.1,3.2-0.2c1-0.1,2-0.4,3-0.8
			c1-0.3,1.7-0.8,2.2-1.7c0.5-0.8,0.7-1.8,0.7-3.1c0-1.3-0.4-2.5-1.1-3.6c-0.7-1.1-1.8-2-3.2-2.7c-1.4-0.8-3.1-1.5-5-2.2
			c-1.9-0.7-3.9-1.3-6.1-2c-0.3-0.1-0.6-0.2-0.9-0.2c-0.3,0-0.6-0.1-0.9-0.2c-0.4-0.1-0.7-0.2-1-0.2c-0.3,0-0.6-0.1-0.9-0.2
			c-0.7-0.2-1.3-0.4-1.9-0.6c-0.6-0.2-1.2-0.4-1.8-0.6c-3.1-0.8-5.8-1.8-8.3-3c-2.4-1.2-4.6-2.6-6.6-4.2c-1.8-1.6-3.2-3.5-4.1-5.7
			c-0.9-2.2-1.4-4.6-1.4-7.4c0-3.9,0.7-7.2,2-9.7c1.3-2.5,3.4-4.3,6.1-5.3c2.7-1.1,5.6-1.8,8.8-2.4c3.2-0.5,6.6-0.8,10.4-0.8
			l26.1-0.3V372h-27.2c-1.7,0.2-3.3,0.4-4.8,0.6c-1.5,0.2-2.9,0.5-4.1,0.9c-1.2,0.4-2.2,1-2.7,1.7c-0.6,0.8-0.9,1.7-0.9,2.9
			c0,1.2,0.3,2.4,0.9,3.4c0.6,1,1.6,1.9,2.8,2.5c1.2,0.7,2.6,1.3,4,1.8c1.4,0.5,2.9,1,4.4,1.5c0.5,0.1,0.9,0.2,1.4,0.3
			c0.4,0.1,0.8,0.2,1.2,0.3c0.2,0.1,0.4,0.2,0.6,0.2c0.2,0,0.4,0.1,0.7,0.1c0.2,0.1,0.4,0.2,0.6,0.2c0.2,0,0.4,0.1,0.6,0.1
			c0.3,0.1,0.6,0.2,0.9,0.3c0.3,0.1,0.6,0.2,0.9,0.3c0.2,0,0.3,0,0.4,0.1c0.1,0,0.2,0.1,0.4,0.1c0.1,0.1,0.2,0.2,0.4,0.2
			c0.1,0,0.3,0.1,0.4,0.1c4.2,1.4,7.8,2.9,10.8,4.5c3,1.5,5.3,3.1,6.9,4.8c1.6,1.6,2.9,3.6,3.7,5.8c0.8,2.3,1.2,4.8,1.2,7.6
			c-0.1,3.2-0.6,5.8-1.5,8c-0.9,2.2-2.2,3.9-3.8,5.1c-1.5,1.2-3.2,2.3-5,3c-1.8,0.8-3.6,1.3-5.5,1.6c-0.7,0.1-1.3,0.1-1.9,0.1
			c-0.6,0-1.2,0-1.8,0c-0.3,0-0.6,0-0.9,0s-0.6,0-0.9,0.1c-0.3,0-0.6,0-0.8,0c-0.2,0-0.5,0-0.8,0s-0.6,0-0.8,0c-0.2,0-0.5,0-0.6,0
			c-0.3,0-0.6,0-0.8,0c-0.2,0-0.5,0-0.6,0c-0.3-0.1-0.6-0.1-0.8-0.1c-0.2,0-0.5,0-0.6,0c-0.2,0-0.4,0-0.6,0c-0.2,0-0.4,0-0.6,0H186
			v-12.5H215.4z"/>
		<path id="XMLID_40_" class="st0" d="M291.5,362.9c0-5,0.7-9.6,2.2-13.8c1.5-4.2,3.7-8.1,6.7-11.7c3.1-3.5,6.7-6.1,10.9-7.9
			c4.2-1.8,9-2.7,14.3-2.7c5.1,0,9.8,0.9,14,2.6c4.2,1.7,8,4.3,11.2,7.8c3.4,3.5,5.9,7.5,7.5,12.1c1.6,4.6,2.5,9.8,2.5,15.7
			c0,0.1,0,0.2,0,0.3c0,0.1,0,0.2,0,0.2c0,0,0,0.1,0,0.2c0,0.1,0,0.2,0,0.3c0,0.1,0,0.2,0,0.3c0,0.1,0,0.2,0,0.4c0,0.1,0,0.3,0,0.5
			c0,0.1,0,0.2,0,0.3c0,0.1,0,0.2,0,0.3v62.1h-13.7v-46.5h-37.5v-13.5h37.5c0-0.3,0-0.5,0-0.6c0-0.1,0-0.2,0-0.3
			c0-0.1,0-0.2,0.1-0.3c0-0.2,0-0.3,0-0.4c0-0.2,0-0.4,0-0.5c0-0.1,0-0.3,0-0.4c0-0.1,0-0.2,0-0.3c0-0.1,0-0.2,0-0.3
			c0-0.2,0-0.3,0-0.4c0-4.5-0.5-8.5-1.4-11.8c-0.9-3.4-2.3-6.1-4.1-8.4c-1.8-2.2-4-3.9-6.6-5c-2.5-1.2-5.4-1.7-8.6-1.7
			c-3,0-5.6,0.4-7.9,1.2c-2.3,0.8-4.2,1.9-5.8,3.3c-1.5,1.4-2.8,3-3.8,4.6c-1,1.6-1.8,3.3-2.4,5c-0.3,0.9-0.5,1.7-0.7,2.6
			c-0.2,0.9-0.4,1.7-0.6,2.6c-0.1,0.9-0.2,1.7-0.2,2.4c0,0.7-0.1,1.4-0.1,2.1v66.7h-13.7V362.9z"/>
		<path id="XMLID_42_" class="st0" d="M374.4,388c0-3.8,0.7-7.5,2-10.9c1.3-3.4,3.4-6.6,6.1-9.6c2.8-2.9,6.1-5.1,9.8-6.6
			c3.7-1.5,8-2.2,12.8-2.2c0.8,0,1.6,0,2.5,0.1c0.9,0.1,1.9,0.2,3,0.4c1.1,0.2,2.1,0.4,3.2,0.7c1.1,0.3,2.2,0.7,3.4,1.2
			c2,0.9,3.9,2,5.8,3.3c1.8,1.3,3.6,3,5.3,4.9c1.7,1.8,3,4.1,3.9,6.8c0.9,2.7,1.3,5.8,1.3,9.2c0,0.1,0,0.2,0,0.4c0,0.1,0,0.3,0,0.5
			c0,0.1,0,0.2,0,0.4c0,0.1,0,0.3,0,0.5v42.8h-13.7v-40.8c0-2.1-0.3-4.2-0.9-6.3c-0.6-2.1-1.6-4-2.8-5.8c-1.2-1.9-2.9-3.4-4.9-4.3
			c-2-1-4.4-1.4-7.2-1.4c-2.6,0-4.9,0.4-6.8,1.3c-2,0.9-3.7,2.2-5.1,3.9c-1.4,1.7-2.6,3.6-3.4,5.5c-0.8,2-1.4,4.1-1.7,6.3v41.6
			h-12.5V388z"/>
		<path id="XMLID_44_" class="st0" d="M460.8,449.1c1.2,0.3,2.3,0.6,3.3,0.9c1.1,0.2,2.1,0.4,3.2,0.6c1.1,0.2,2.1,0.4,3.1,0.5
			c0.3,0,0.6,0,0.9,0s0.6,0,1,0.1c0.3,0,0.6,0,0.9,0.1c0.3,0,0.6,0.1,0.9,0.1s0.6,0,0.9,0s0.6,0,0.9,0.1c0.3,0,0.6,0,0.9,0
			c0.3,0,0.6,0,0.9,0c3.5,0,6.6-0.5,9.4-1.4c2.8-0.9,5.4-2.3,7.6-4.1c2.2-1.8,3.9-3.9,5-6.3c1.2-2.4,1.8-5,1.9-7.9
			c0-0.1,0-0.2,0-0.3c0-0.1,0-0.2,0-0.3c0-0.1,0-0.2,0-0.2c0,0,0-0.1,0-0.2c-0.1-0.1-0.1-0.2-0.1-0.3c0-0.1,0-0.2,0-0.3
			c0-0.1,0-0.2,0-0.2c0,0,0-0.1,0-0.2v-31.7c0-3.8-0.6-7.3-1.7-10.4c-1.1-3.1-2.8-5.9-5-8.3c-2.1-2.4-4.4-4.2-7-5.4
			c-2.5-1.2-5.2-1.8-8-1.8c-0.1,0-0.2,0-0.4,0c-0.1,0-0.3,0-0.4,0c-0.2,0.1-0.3,0.1-0.4,0.1c-0.1,0-0.2,0-0.4,0c-0.3,0-0.6,0-0.9,0
			s-0.5,0-0.7,0c-2.6,0.4-5.1,1.2-7.4,2.3c-2.4,1.2-4.6,2.7-6.8,4.8c-2.1,2-3.7,4.6-4.8,7.8c-1.1,3.2-1.6,6.9-1.6,11.2
			c0,2.8,0.5,5.4,1.6,7.9c1.1,2.5,2.6,4.9,4.8,7.1c2.2,2.1,4.8,3.7,7.6,4.8c2.9,1.1,6.1,1.7,9.8,1.7c0.8,0,1.5,0,2.2,0
			c0.7,0,1.4,0,2.1-0.1c0.8-0.1,1.5-0.2,2.2-0.4c0.7-0.1,1.4-0.4,2.1-0.6c0.7-0.2,1.4-0.4,2.1-0.6c0.7-0.2,1.4-0.6,2.1-0.9
			c0.8-0.4,1.5-0.8,2.2-1.3c0.7-0.5,1.4-1,2.1-1.6v13.3c-1.2,1-2.4,1.7-3.7,2.2c-1.3,0.5-2.7,1-4.2,1.4c-1.4,0.3-3,0.5-4.8,0.7
			c-1.7,0.2-3.6,0.3-5.5,0.3c-6.2-0.3-11.6-1.3-16.1-3.2c-4.5-1.8-8.2-4.5-11-7.9c-2.7-3.5-4.7-7.3-6.1-11.5
			c-1.4-4.2-2.1-8.7-2.1-13.5c0-4.8,0.6-9.1,1.8-12.9c1.2-3.8,3-7,5.4-9.7c2.4-2.7,4.9-5,7.6-6.8c2.6-1.9,5.4-3.3,8.3-4.4
			c1.2-0.5,2.3-0.9,3.5-1.2s2.3-0.5,3.5-0.7c1.2-0.2,2.3-0.3,3.3-0.4c1.1-0.1,2.1-0.1,3-0.1c4.5,0,8.8,0.8,13,2.3
			c4.1,1.5,8,3.8,11.5,6.9c3.7,3,6.4,6.5,8.1,10.4c1.8,4,2.7,8.4,2.7,13.2v37.2c0,0.6-0.1,1.4-0.2,2.5c-0.1,1.1-0.4,2.4-0.6,4
			c-0.3,1.6-0.7,3.3-1.3,4.9c-0.6,1.6-1.3,3.4-2.3,5.2c-1.2,2.2-2.7,4.3-4.5,6.3c-1.9,2-4.1,3.9-6.7,5.7c-2.6,1.8-5.7,3.2-9.3,4.1
			c-3.6,0.9-7.8,1.4-12.5,1.4c-2.7,0-5.2-0.1-7.5-0.3c-2.3-0.2-4.4-0.5-6.3-1c-1-0.2-1.9-0.4-2.7-0.6c-0.9-0.2-1.7-0.5-2.4-0.6
			c-0.8-0.3-1.5-0.6-2.2-0.8c-0.7-0.2-1.3-0.5-1.9-0.6c-0.1-0.1-0.2-0.2-0.3-0.2c-0.1,0-0.2-0.1-0.3-0.1h-0.1l-0.1-0.1l3.5-11.4
			C458.5,448.5,459.7,448.8,460.8,449.1z"/>
		<path id="XMLID_46_" class="st0" d="M574.1,378.9c-0.2-0.1-0.4-0.2-0.6-0.4c-0.2-0.1-0.4-0.4-0.6-0.6c-0.2-0.2-0.4-0.4-0.6-0.7
			c-0.2-0.3-0.5-0.6-0.8-0.9c-0.3-0.2-0.6-0.4-0.9-0.6c-0.3-0.2-0.6-0.5-0.9-0.8c-0.4-0.2-0.8-0.4-1.2-0.6c-0.4-0.2-0.8-0.5-1.3-0.6
			c-1-0.5-2.1-0.8-3.4-1c-1.3-0.2-2.8-0.3-4.4-0.3c-3.7,0-7,0.7-9.9,2c-2.8,1.3-5.2,3.3-7.1,5.9c-1.9,2.6-3.4,5.3-4.3,8.2
			c-1,2.9-1.4,5.9-1.4,8.9c0,0.1,0,0.2,0,0.3v0.1c0,2.8,0.5,5.5,1.5,8c1,2.5,2.5,5,4.4,7.3c1.9,2.3,4.3,4,7.1,5.2
			c2.8,1.2,6.1,1.7,9.7,1.7c3.9,0,7.2-0.5,9.9-1.4c2.6-0.9,4.6-2.3,6-4.1c1.3-1.9,2.6-4.2,3.7-6.8c1.1-2.6,2.1-5.5,3-8.8v-0.1
			l0.1-0.1v-0.1l12.5,0.7c0,0.2,0,0.4,0,0.5c0,0.1,0,0.3,0.1,0.4c0,0.2,0,0.3,0,0.4c0,0.1,0,0.2,0,0.4c0,0.1,0,0.2,0,0.4
			c0,0.1,0,0.3,0.1,0.4c0,0.2,0,0.3,0,0.4c0,0.1,0,0.2,0,0.3c0,0.8,0,1.6-0.1,2.4c-0.1,0.8-0.2,1.7-0.4,2.5
			c-0.1,0.4-0.2,0.8-0.4,1.3c-0.1,0.5-0.3,0.9-0.4,1.3c-0.2,0.5-0.4,0.9-0.5,1.4c-0.1,0.4-0.3,0.9-0.5,1.4c-1.2,2.4-2.7,4.8-4.6,7.1
			c-1.9,2.3-4.3,4.5-7.1,6.5c-2.7,2-5.8,3.5-9.4,4.5c-3.6,1-7.6,1.5-12,1.5c-5.1,0-9.8-0.8-14.1-2.4c-4.3-1.6-8.2-4-11.7-7.3
			c-3.6-3.4-6.2-7.1-7.9-11.3c-1.7-4.2-2.6-8.8-2.6-13.9c0-5.4,0.7-10.1,2.2-14.3c1.4-4.1,3.6-7.7,6.5-10.7c2.9-3,5.9-5.4,9.1-7.3
			c3.2-1.9,6.5-3.3,9.9-4.2c0.4-0.1,0.7-0.2,1.1-0.2c0.3,0,0.7-0.1,1.1-0.2c0.4,0,0.7,0,1.1-0.1c0.3,0,0.7-0.1,1.1-0.2
			c0.8-0.1,1.5-0.2,2.2-0.2c0.7,0,1.4-0.1,2.1-0.1c3.9,0,7.6,0.6,11,1.7c3.4,1.1,6.6,2.8,9.4,5c2.8,2.2,5.3,4.7,7.6,7.3
			c2.3,2.7,4.3,5.6,6,8.6l-47.7,25.8l-5.6-10.1L574.1,378.9z"/>
		<path id="XMLID_48_" class="st0" d="M622.8,328.9v101h-13.5v-101H622.8z"/>
		<path id="XMLID_50_" class="st0" d="M686.3,378.9c-0.2-0.1-0.4-0.2-0.6-0.4c-0.2-0.1-0.4-0.4-0.6-0.6c-0.2-0.2-0.4-0.4-0.6-0.7
			c-0.2-0.3-0.5-0.6-0.8-0.9c-0.3-0.2-0.6-0.4-0.9-0.6c-0.3-0.2-0.6-0.5-0.9-0.8c-0.4-0.2-0.8-0.4-1.2-0.6c-0.4-0.2-0.8-0.5-1.3-0.6
			c-1-0.5-2.1-0.8-3.4-1c-1.3-0.2-2.8-0.3-4.4-0.3c-3.7,0-7,0.7-9.9,2c-2.8,1.3-5.2,3.3-7.1,5.9c-1.9,2.6-3.4,5.3-4.3,8.2
			c-1,2.9-1.4,5.9-1.4,8.9c0,0.1,0,0.2,0,0.3v0.1c0,2.8,0.5,5.5,1.5,8c1,2.5,2.5,5,4.4,7.3c1.9,2.3,4.3,4,7.1,5.2s6.1,1.7,9.7,1.7
			c3.9,0,7.2-0.5,9.9-1.4c2.6-0.9,4.6-2.3,6-4.1c1.3-1.9,2.6-4.2,3.7-6.8c1.1-2.6,2.1-5.5,3-8.8v-0.1l0.1-0.1v-0.1l12.5,0.7
			c0,0.2,0,0.4,0,0.5c0,0.1,0,0.3,0.1,0.4c0,0.2,0,0.3,0,0.4c0,0.1,0,0.2,0,0.4c0,0.1,0,0.2,0,0.4c0,0.1,0,0.3,0.1,0.4
			c0,0.2,0,0.3,0,0.4c0,0.1,0,0.2,0,0.3c0,0.8,0,1.6-0.1,2.4c-0.1,0.8-0.2,1.7-0.4,2.5c-0.1,0.4-0.2,0.8-0.4,1.3
			c-0.1,0.5-0.3,0.9-0.4,1.3c-0.2,0.5-0.4,0.9-0.5,1.4c-0.1,0.4-0.3,0.9-0.5,1.4c-1.2,2.4-2.7,4.8-4.6,7.1c-1.9,2.3-4.3,4.5-7.1,6.5
			c-2.7,2-5.8,3.5-9.4,4.5c-3.6,1-7.6,1.5-12,1.5c-5.1,0-9.8-0.8-14.1-2.4c-4.3-1.6-8.2-4-11.7-7.3c-3.6-3.4-6.2-7.1-7.9-11.3
			c-1.7-4.2-2.6-8.8-2.6-13.9c0-5.4,0.7-10.1,2.2-14.3c1.4-4.1,3.6-7.7,6.5-10.7c2.9-3,5.9-5.4,9.1-7.3c3.2-1.9,6.5-3.3,9.9-4.2
			c0.4-0.1,0.7-0.2,1.1-0.2c0.3,0,0.7-0.1,1.1-0.2c0.4,0,0.7,0,1.1-0.1c0.3,0,0.7-0.1,1.1-0.2c0.8-0.1,1.5-0.2,2.2-0.2
			c0.7,0,1.4-0.1,2.1-0.1c3.9,0,7.6,0.6,11,1.7c3.4,1.1,6.6,2.8,9.4,5c2.8,2.2,5.3,4.7,7.6,7.3c2.3,2.7,4.2,5.6,6,8.6L658,408.3
			l-5.6-10.1L686.3,378.9z"/>
		<path id="XMLID_52_" class="st0" d="M745.3,417.4c0.2,0.2,0.4,0.3,0.6,0.3c0.2,0,0.4,0,0.6,0c0.2,0,0.4,0,0.6,0c0.2,0,0.4,0,0.6,0
			c0.2,0.1,0.4,0.1,0.6,0.1c0.2,0,0.4,0,0.6,0c0.2,0,0.4,0,0.6,0c0.2,0,0.4,0,0.6,0c1.2,0,2.2-0.1,3.2-0.2c1-0.1,2-0.4,3-0.8
			c1-0.3,1.7-0.8,2.2-1.7c0.5-0.8,0.7-1.8,0.7-3.1c0-1.3-0.4-2.5-1.1-3.6c-0.7-1.1-1.8-2-3.2-2.7c-1.4-0.8-3.1-1.5-5-2.2
			c-1.9-0.7-3.9-1.3-6.1-2c-0.3-0.1-0.6-0.2-0.9-0.2c-0.3,0-0.6-0.1-0.9-0.2c-0.4-0.1-0.7-0.2-1-0.2c-0.3,0-0.6-0.1-0.9-0.2
			c-0.7-0.2-1.3-0.4-1.9-0.6c-0.6-0.2-1.2-0.4-1.8-0.6c-3.1-0.8-5.8-1.8-8.3-3c-2.5-1.2-4.6-2.6-6.6-4.2c-1.8-1.6-3.2-3.5-4.1-5.7
			c-0.9-2.2-1.4-4.6-1.4-7.4c0-3.9,0.7-7.2,2-9.7c1.3-2.5,3.4-4.3,6.1-5.3c2.7-1.1,5.6-1.8,8.8-2.4c3.2-0.5,6.6-0.8,10.4-0.8
			l26.1-0.3V372H742c-1.7,0.2-3.3,0.4-4.8,0.6c-1.5,0.2-2.9,0.5-4.1,0.9c-1.3,0.4-2.2,1-2.7,1.7c-0.6,0.8-0.9,1.7-0.9,2.9
			c0,1.2,0.3,2.4,0.9,3.4c0.6,1,1.6,1.9,2.8,2.5c1.2,0.7,2.6,1.3,4,1.8c1.4,0.5,2.9,1,4.4,1.5c0.5,0.1,0.9,0.2,1.4,0.3
			c0.4,0.1,0.8,0.2,1.2,0.3c0.2,0.1,0.4,0.2,0.6,0.2c0.2,0,0.4,0.1,0.7,0.1c0.2,0.1,0.4,0.2,0.6,0.2c0.2,0,0.4,0.1,0.6,0.1
			c0.3,0.1,0.6,0.2,0.9,0.3c0.3,0.1,0.6,0.2,0.9,0.3c0.2,0,0.3,0,0.4,0.1c0.1,0,0.2,0.1,0.4,0.1c0.1,0.1,0.2,0.2,0.4,0.2
			c0.1,0,0.3,0.1,0.4,0.1c4.2,1.4,7.8,2.9,10.8,4.5c3,1.5,5.3,3.1,6.9,4.8c1.6,1.6,2.9,3.6,3.7,5.8c0.8,2.3,1.2,4.8,1.2,7.6
			c-0.1,3.2-0.6,5.8-1.5,8c-0.9,2.2-2.2,3.9-3.8,5.1c-1.5,1.2-3.2,2.3-5,3c-1.8,0.8-3.6,1.3-5.5,1.6c-0.7,0.1-1.3,0.1-1.9,0.1
			c-0.6,0-1.2,0-1.8,0c-0.3,0-0.6,0-0.9,0c-0.3,0-0.6,0-0.9,0.1c-0.3,0-0.6,0-0.8,0c-0.2,0-0.5,0-0.8,0c-0.3,0-0.6,0-0.8,0
			c-0.2,0-0.5,0-0.6,0c-0.3,0-0.6,0-0.8,0c-0.2,0-0.5,0-0.6,0c-0.3-0.1-0.6-0.1-0.8-0.1c-0.2,0-0.5,0-0.6,0c-0.2,0-0.4,0-0.6,0
			c-0.2,0-0.4,0-0.6,0h-28.2v-12.5H745.3z"/>
	</g>
	<g id="XMLID_5_">
		<g id="XMLID_36_">
			<path id="XMLID_37_" class="st1" d="M139.2,285.1c0.6-2,1.5-3.6,2.7-4.9c1.2-1.3,2.4-2.4,3.6-3.4c1.2-0.9,2.5-1.7,3.9-2.2
				c0.9-0.4,1.9-0.7,2.7-1c0.9-0.2,1.7-0.4,2.6-0.6c0.8-0.1,1.6-0.2,2.3-0.3c0.7-0.1,1.3-0.2,1.9-0.2l3.5-0.1v4.8h-3
				c-2.3,0.2-4.4,0.6-6.2,1.1c-1.8,0.6-3.3,1.4-4.5,2.4c-1.2,1-2.2,2.1-3,3.2c-0.8,1.1-1.3,2.3-1.6,3.5c0,0.1-0.1,0.2-0.1,0.3
				c0,0.1,0,0.2,0,0.2c0,0.1-0.1,0.2-0.1,0.3c0,0.1,0,0.2,0,0.2l18.6-0.1v4.7h-18.6c0,0.4,0,0.8,0.1,1.1c0,0.3,0.1,0.7,0.2,1.1
				c0.1,0.4,0.2,0.7,0.4,1.1c0.1,0.4,0.3,0.8,0.4,1.2c0.5,1.1,1.2,2.1,1.9,3.1c0.8,1,1.7,1.9,2.7,2.8c1.1,0.9,2.2,1.5,3.3,2
				c1.2,0.4,2.4,0.7,3.7,0.7c0,0,0.1,0,0.1,0c0,0,0,0,0.1,0c0.1,0,0.1,0,0.2,0c0,0,0.1,0,0.1,0c0,0,0.1,0,0.1,0s0,0,0.1,0l5.2-0.1
				v4.8h-4.3c-0.1,0-0.3,0-0.5,0s-0.3,0-0.5,0c-0.2,0-0.3,0-0.5,0c-0.1,0-0.3,0-0.5,0c-0.3,0-0.7-0.1-1-0.1
				c-0.3-0.1-0.6-0.1-0.9-0.1c-2-0.4-3.9-1.1-5.8-2.1c-1.8-1-3.6-2.3-5.2-3.9c-1.7-1.6-2.9-3.5-3.8-5.5c-0.8-2.1-1.2-4.4-1.2-7v-0.1
				C138.2,289.4,138.6,287.1,139.2,285.1z"/>
		</g>
		<g id="XMLID_33_">
			<path id="XMLID_34_" class="st1" d="M215,272.5h12c0.4,0.1,0.7,0.1,1.1,0.2c0.4,0,0.8,0.1,1.1,0.2c0.4,0.1,0.8,0.2,1.2,0.3
				c0.4,0.1,0.8,0.2,1.2,0.3c1.5,0.5,3,1.3,4.4,2.3c1.4,1,2.7,2.3,4,3.8c1.3,1.5,2.2,3.2,2.9,5.1c0.6,1.9,1,4,1,6.3c0,0,0,0.1,0,0.1
				c0,0,0,0,0,0.1c0,0,0,0.1,0,0.2c0,0,0,0.1,0,0.1s0,0.1,0,0.1c0,0,0,0.1,0,0.1s0,0,0,0.1c0,0.5,0,1-0.1,1.7
				c-0.1,0.6-0.2,1.4-0.4,2.2c-0.1,0.8-0.4,1.6-0.7,2.5c-0.3,0.8-0.7,1.7-1.1,2.6c-0.6,1.3-1.4,2.5-2.4,3.7c-1,1.2-2.1,2.3-3.4,3.4
				c-1.3,1.1-2.8,1.9-4.5,2.4c-1.8,0.5-3.7,0.8-6,0.9h-3v-5.1h3c0,0.1,0,0.1,0,0.1c0,0,0,0,0.1,0c0,0,0.1,0,0.1,0c0,0,0,0,0.1,0
				c0,0,0.1,0,0.1,0c0,0,0.1,0,0.1,0c0,0,0,0,0.1,0c1.5,0,2.9-0.2,4.2-0.7c1.2-0.5,2.3-1.1,3.2-2.1c0.9-0.9,1.7-1.9,2.4-2.8
				c0.7-1,1.2-2,1.6-3.1c0.1-0.3,0.1-0.5,0.2-0.7c0.1-0.2,0.1-0.5,0.2-0.7c0.1-0.2,0.1-0.4,0.2-0.7c0.1-0.2,0.1-0.5,0.1-0.7
				c0.1-0.5,0.1-1,0.2-1.4c0.1-0.4,0.1-0.8,0.1-1.2c0,0,0-0.1,0-0.1c0,0,0-0.1,0-0.1c0,0,0-0.1,0-0.1c0-0.1,0-0.1,0.1-0.1
				c0,0,0-0.1,0-0.1s0-0.1,0-0.1c0,0,0-0.1,0-0.1c0,0,0-0.1,0-0.1v-0.1c0,0,0-0.1,0-0.1c0-1.6-0.3-3.2-0.9-4.7
				c-0.6-1.5-1.4-2.9-2.5-4.3c-1.1-1.4-2.6-2.4-4.3-3.1s-3.8-1-6.1-1l-3.9-0.1v33.6H215V272.5z"/>
		</g>
		<g id="XMLID_30_">
			<path id="XMLID_31_" class="st1" d="M296.6,272.5h5.2v38.4h-5.2V272.5z"/>
		</g>
		<g id="XMLID_27_">
			<path id="XMLID_28_" class="st1" d="M354.8,285.4c0-2.6,0.3-4.8,1-6.5c0.7-1.7,1.7-3,3-3.8c1.4-0.8,2.8-1.5,4.2-1.9
				c1.5-0.4,3-0.6,4.6-0.6l5.6-0.1v4.8h-5.1c-1.2,0.1-2.3,0.2-3.3,0.5c-1,0.3-1.9,0.7-2.6,1.2c-0.8,0.5-1.3,1.3-1.7,2.2
				c-0.4,1-0.6,2.1-0.6,3.5v4.6h13.4v4.8H360v16.8h-5.1V285.4z"/>
		</g>
		<g id="XMLID_23_">
			<path id="XMLID_24_" class="st1" d="M430.1,262.6h6l-7.3,7.8H425L430.1,262.6z M432.3,272.5v38.4h-5.2v-38.4H432.3z"/>
		</g>
		<g id="XMLID_20_">
			<path id="XMLID_21_" class="st1" d="M487.3,285.1c0.7-2,1.8-3.7,3.3-5.3c1.5-1.6,3-2.9,4.7-4c1.6-1.1,3.3-1.9,5-2.4
				c0.4-0.1,0.8-0.3,1.2-0.4c0.4-0.1,0.8-0.2,1.2-0.2c0.4-0.1,0.8-0.1,1.2-0.2c0.4,0,0.8-0.1,1.2-0.1l5.6-0.1v4.8h-4.3
				c-2.5,0.3-4.7,0.9-6.5,1.7c-1.9,0.8-3.5,2-4.7,3.5c-1.2,1.5-2.2,3-2.8,4.6c-0.6,1.6-1,3.3-1,5c0,0.4,0,0.8,0.1,1.3
				c0,0.5,0.1,1,0.2,1.5c0.1,0.3,0.1,0.5,0.2,0.8c0.1,0.3,0.1,0.6,0.2,0.8c0.1,0.3,0.2,0.6,0.3,0.8c0.1,0.3,0.2,0.6,0.4,0.8
				c0.4,1,1,2,1.8,2.9c0.8,0.9,1.7,1.8,2.7,2.6c1.1,0.8,2.3,1.5,3.9,1.9c1.5,0.4,3.3,0.6,5.3,0.6l4.3-0.1v4.8h-6.9
				c-2.8,0-5.3-0.5-7.5-1.5c-2.2-1-4.1-2.4-5.6-4.2c-1.5-1.8-2.7-3.9-3.5-6.1c-0.8-2.3-1.2-4.7-1.2-7.4v-0.1
				C486.2,289.2,486.5,287.1,487.3,285.1z"/>
		</g>
		<g id="XMLID_17_">
			<path id="XMLID_18_" class="st1" d="M562,272.5h5.2v38.4H562V272.5z"/>
		</g>
		<g id="XMLID_6_">
			<path id="XMLID_14_" class="st1" d="M622.6,283.3c1-2.3,2.4-4.3,4.3-6c1.9-1.7,3.9-3,6-4c2.1-0.9,4.3-1.5,6.5-1.6
				c0.1,0,0.1,0,0.2,0c0,0,0.1,0,0.2-0.1c0,0,0.1,0,0.1,0c0.1,0,0.1,0,0.1,0c0.1,0,0.1,0,0.2,0c0,0,0.1,0,0.2,0c0,0,0.1,0,0.1,0
				c0.1,0,0.1,0,0.1,0c0.5,0,1,0,1.5,0.1c0.5,0,1,0.1,1.5,0.2c0.5,0.1,1,0.2,1.6,0.3c0.5,0.1,1.1,0.2,1.6,0.4
				c1.7,0.5,3.4,1.3,4.9,2.3c1.6,1,3.1,2.3,4.5,3.8c1.5,1.5,2.6,3.3,3.3,5.5c0.8,2.2,1.2,4.6,1.3,7.4c0,2.6-0.4,5-1.3,7.3
				c-0.9,2.3-2.2,4.5-3.9,6.5c-1.7,2-3.8,3.5-6.1,4.5c-2.4,1-5,1.5-8.1,1.5c-2.8,0-5.4-0.4-7.8-1.3c-2.4-0.8-4.6-2.1-6.5-3.8
				c-2-1.7-3.5-3.8-4.4-6.4c-1-2.5-1.5-5.4-1.5-8.8v-0.1C621.1,288.2,621.6,285.6,622.6,283.3z M626.7,291.4c0,0.1,0,0.1,0,0.2
				c0,0,0,0.1,0,0.2c0,0,0,0.1,0,0.1c0,0,0,0.1,0,0.1c0,2,0.3,3.8,0.9,5.5c0.7,1.7,1.7,3.3,3,4.8c1.3,1.5,2.8,2.6,4.5,3.3
				c1.7,0.7,3.6,1.1,5.8,1.1c0.4,0,0.8,0,1.3-0.1s0.9-0.1,1.4-0.2c0.5-0.1,1-0.2,1.6-0.3s1.1-0.3,1.6-0.5c1.1-0.4,2.1-1,3-1.6
				c1-0.7,1.9-1.6,2.7-2.6c0.9-1.1,1.5-2.4,2-3.9c0.4-1.6,0.7-3.4,0.7-5.4c0-1.9-0.3-3.8-0.9-5.6c-0.6-1.8-1.4-3.5-2.6-5.1
				c-1.1-1.6-2.6-2.8-4.5-3.6c-1.9-0.8-4.1-1.2-6.7-1.2c-2.2,0-4.1,0.4-5.8,1.2c-1.7,0.8-3.1,1.9-4.4,3.4c-1.2,1.5-2.2,3.1-2.8,4.8
				c-0.6,1.7-0.9,3.4-0.9,5.3v-0.1C626.7,291.2,626.7,291.3,626.7,291.4z"/>
		</g>
	</g>
</g>
</svg>
