<?xml version="1.0" encoding="utf-8"?>
<!-- Generator: Adobe Illustrator 19.0.0, SVG Export Plug-In . SVG Version: 6.00 Build 0)  -->
<svg version="1.1" id="Layer_1" xmlns="http://www.w3.org/2000/svg" xmlns:xlink="http://www.w3.org/1999/xlink" x="0px" y="0px"
	 viewBox="0 0 800 800" style="enable-background:new 0 0 800 800;" xml:space="preserve">
<style type="text/css">
	.st0{fill:#FFFFFF;}
</style>
<g id="XMLID_33_">
	<g id="XMLID_79_">
		<path id="XMLID_80_" class="st0" d="M103.3,335v101.8H88.1V335H60.8v-15.1h69.7V335H103.3z"/>
		<path id="XMLID_82_" class="st0" d="M221.1,319.9l42.5,116.9h-16.1l-15.1-41.4h-31l-15,41.4h-16.2l42.5-116.9H221.1z M227,380.3
			l-10-27.4l-9.9,27.4H227z"/>
		<path id="XMLID_85_" class="st0" d="M333.5,319.9l37.9,65.6l37.8-65.6H423v116.9h-15.1v-84.5l-36.5,63.1l-36.6-63.1v84.5h-15.1
			V319.9H333.5z"/>
		<path id="XMLID_87_" class="st0" d="M503,319.9v116.9h-15.1V319.9H503z"/>
		<path id="XMLID_89_" class="st0" d="M581.7,319.9l37.9,65.6l37.8-65.6h13.8v116.9h-15.1v-84.5l-36.5,63.1L583,352.4v84.5h-15.1
			V319.9H581.7z"/>
		<path id="XMLID_91_" class="st0" d="M751.2,319.9v116.9h-15.1V319.9H751.2z"/>
	</g>
	<g id="XMLID_3_">
		<path id="XMLID_34_" class="st0" d="M121.6,496.9v10.4h-4.2v-32.5h9.2c2.6,0.4,4.8,1.4,6.6,3.2c2.2,2.2,3.2,4.8,3.2,7.8
			c0,3.1-1.1,5.7-3.2,7.8c-2.2,2.2-4.8,3.2-7.8,3.2H121.6z M121.6,479v13.6h3.8c1.9,0,3.5-0.7,4.8-2c1.3-1.3,2-2.9,2-4.8
			c0-1.9-0.7-3.5-2-4.8c-1.3-1.3-2.9-2-4.8-2H121.6z"/>
		<path id="XMLID_37_" class="st0" d="M160.6,474.8l11.8,32.5h-4.5l-4.2-11.5h-8.6l-4.2,11.5h-4.5l11.8-32.5H160.6z M162.2,491.6
			l-2.8-7.6l-2.8,7.6H162.2z"/>
		<path id="XMLID_40_" class="st0" d="M195,496.9h-3.8v10.4H187v-32.5h9.2c2.6,0.4,4.8,1.4,6.6,3.2c2.2,2.2,3.2,4.8,3.2,7.8
			c0,3.1-1.1,5.7-3.2,7.8c-1.5,1.5-2.6,2.3-3.4,2.5l7.2,11.1h-5.1L195,496.9z M191.2,479v13.6h3.8c1.9,0,3.5-0.7,4.8-2
			c1.3-1.3,2-2.9,2-4.8c0-1.9-0.7-3.5-2-4.8c-1.3-1.3-2.9-2-4.8-2H191.2z"/>
		<path id="XMLID_43_" class="st0" d="M231.3,479v28.3h-4.2V479h-7.6v-4.2h19.4v4.2H231.3z"/>
		<path id="XMLID_45_" class="st0" d="M258.1,474.8v32.5h-4.2v-32.5H258.1z"/>
		<path id="XMLID_47_" class="st0" d="M300.3,499.6l3.1,2.8c-3.8,3.5-7.9,5.3-12.2,5.3c-4.6,0-8.5-1.6-11.7-4.9
			c-3.2-3.2-4.9-7.1-4.9-11.7c0-4.6,1.6-8.5,4.9-11.7c3.2-3.2,7.1-4.9,11.7-4.9c4.3,0,8.4,1.8,12.2,5.3l-3.1,2.9
			c-2.9-2.6-5.9-3.9-9.1-3.9c-3.4,0-6.3,1.2-8.7,3.6c-2.4,2.4-3.6,5.3-3.6,8.7c0,3.4,1.2,6.3,3.6,8.8c2.4,2.4,5.3,3.6,8.7,3.6
			C294.4,503.4,297.4,502.1,300.3,499.6z"/>
		<path id="XMLID_49_" class="st0" d="M323.6,474.8v32.5h-4.2v-32.5H323.6z"/>
		<path id="XMLID_51_" class="st0" d="M344.8,496.9v10.4h-4.2v-32.5h9.2c2.6,0.4,4.8,1.4,6.6,3.2c2.2,2.2,3.2,4.8,3.2,7.8
			c0,3.1-1.1,5.7-3.2,7.8c-2.2,2.2-4.8,3.2-7.8,3.2H344.8z M344.8,479v13.6h3.8c1.9,0,3.5-0.7,4.8-2c1.3-1.3,2-2.9,2-4.8
			c0-1.9-0.7-3.5-2-4.8c-1.3-1.3-2.9-2-4.8-2H344.8z"/>
		<path id="XMLID_54_" class="st0" d="M383.8,474.8l11.8,32.5h-4.5l-4.2-11.5h-8.6l-4.2,11.5h-4.5l11.8-32.5H383.8z M385.5,491.6
			l-2.8-7.6l-2.8,7.6H385.5z"/>
		<path id="XMLID_57_" class="st0" d="M423,507.4c-3.2-0.6-6-2.1-8.4-4.5c-3.2-3.2-4.9-7.1-4.9-11.7c0-4.6,1.6-8.5,4.9-11.7
			c3.2-3.2,7.1-4.9,11.7-4.9c4.3,0,8.4,1.8,12.2,5.3l-3.1,2.9c-2.9-2.6-5.9-3.9-9.1-3.9c-3.4,0-6.3,1.2-8.7,3.6
			c-2.4,2.4-3.6,5.3-3.6,8.7c0,3.4,1.2,6.3,3.6,8.8c2.4,2.4,5.3,3.6,8.7,3.6c3.1,0,6.2-1.3,9.1-3.9l3.1,2.8
			c-3.8,3.5-7.9,5.3-12.2,5.3h-0.4l-0.2,0.5c1,0.5,1.6,1.1,1.9,1.8c0.1,0.2,0.1,0.4,0.1,0.5c0,0.2,0.1,0.4,0.1,0.5
			c0,0.6-0.2,1.1-0.6,1.6c-0.7,0.8-1.6,1.3-2.9,1.5c-0.3,0-0.6,0.1-0.9,0.1c-0.8,0-1.8-0.1-3-0.3l0.7-2.6c0.8,0.4,1.4,0.5,1.9,0.5
			c0.1,0,0.2,0,0.2,0c0.4-0.1,0.7-0.3,0.8-0.7c0-0.1,0.1-0.2,0.1-0.3c0-0.1,0-0.1,0-0.2c-0.1-0.4-0.7-0.8-1.9-1.1L423,507.4z"/>
		<path id="XMLID_59_" class="st0" d="M481.9,479.3c3.2,3.2,4.9,7.2,4.9,11.8c0,4.6-1.6,8.5-4.9,11.8c-3.2,3.2-7.2,4.9-11.8,4.9
			c-4.6,0-8.5-1.6-11.8-4.9c-3.2-3.2-4.9-7.2-4.9-11.8c0-4.6,1.6-8.5,4.9-11.8c3.2-3.2,7.2-4.9,11.8-4.9
			C474.8,474.4,478.7,476,481.9,479.3z M470.2,478.6c-3.4,0-6.3,1.2-8.8,3.6c-2.4,2.4-3.6,5.3-3.6,8.8c0,3.4,1.2,6.3,3.6,8.8
			s5.3,3.6,8.8,3.6c3.4,0,6.3-1.2,8.8-3.6s3.6-5.3,3.6-8.8c0-3.4-1.2-6.3-3.6-8.8S473.6,478.6,470.2,478.6z M470.7,467.8
			c0.8,0.8,1.4,1.2,1.8,1.2v0c0.4,0,0.6-0.3,0.6-0.8c0-0.4-0.1-0.8-0.3-1.4h3.8c-0.5,3-1.5,4.7-3,5.1c-0.4,0.1-0.8,0.2-1.1,0.2
			c-1,0-1.9-0.4-2.7-1.2c-0.8-0.8-1.4-1.2-1.8-1.2h-0.1c-0.4,0-0.6,0.3-0.6,0.8c0,0.3,0.1,0.8,0.3,1.3h-3.8c0.5-3,1.5-4.7,3-5.1
			c0.4-0.1,0.8-0.2,1.1-0.2C468.9,466.6,469.9,467,470.7,467.8z"/>
		<path id="XMLID_63_" class="st0" d="M520.4,474.8v4.2h-13.3v9.9h13.3v4.2h-13.3v9.9h13.3v4.2h-17.5v-32.5H520.4z"/>
		<path id="XMLID_65_" class="st0" d="M544.8,490.6c-2.3-0.8-4.2-1.9-5.6-3.3c-1.4-1.4-2.1-3.2-2.1-5.3c0-2.1,0.7-3.9,2.2-5.3
			c1.5-1.5,3.3-2.2,5.4-2.2c2.1,0,3.9,0.7,5.4,2.2c0.8,0.8,1.5,2.1,2.1,3.9l-3.8,1.5c-0.5-1.2-0.9-2.1-1.3-2.4c-0.7-0.7-1.5-1-2.4-1
			c-0.9,0-1.8,0.3-2.4,1c-0.7,0.7-1,1.5-1,2.4c0,0.9,0.3,1.8,1,2.4c0.7,0.7,1.8,1.4,3.1,2c2.5,0.8,4.7,2.1,6.5,3.9c2,2,3,4.3,3,7.1
			c0,2.8-1,5.2-3,7.2c-2,2-4.4,3-7.2,3c-2.8,0-5.2-1-7.2-3c-1.6-1.6-2.6-3.8-3-6.6l4.1-1.5c0.3,2.4,0.9,4.1,1.9,5.1
			c1.2,1.2,2.6,1.7,4.2,1.7c1.6,0,3-0.6,4.2-1.7c1.2-1.2,1.7-2.6,1.7-4.2c0-1.6-0.6-3-1.7-4.2C547.8,492.2,546.4,491.3,544.8,490.6z
			"/>
		<path id="XMLID_67_" class="st0" d="M594.3,507.3v-32.5h4.2v28.3h11.6v4.2H594.3z"/>
		<path id="XMLID_69_" class="st0" d="M633.6,479v28.3h-4.2V479h-7.6v-4.2h19.4v4.2H633.6z"/>
		<path id="XMLID_71_" class="st0" d="M658.8,474.8c5.3,0,9.4,1.5,12.3,4.5c3.2,3.3,4.9,7.2,4.9,11.8c0,4.6-1.6,8.5-4.9,11.8
			c-3,3-7.1,4.5-12.3,4.5h-3.1v-32.5H658.8z M660,479.1V503c3.3,0,6.1-1.1,8.2-3.2c2.4-2.4,3.6-5.3,3.6-8.8c0-3.4-1.2-6.3-3.6-8.8
			C666,480.2,663.3,479.1,660,479.1z"/>
		<path id="XMLID_74_" class="st0" d="M702.7,474.8l11.8,32.5H710l-4.2-11.5h-8.6l-4.2,11.5h-4.5l11.8-32.5H702.7z M704.3,491.6
			l-2.8-7.6l-2.8,7.6H704.3z"/>
		<path id="XMLID_77_" class="st0" d="M732.4,502.5c0.6,0.6,0.9,1.3,0.9,2.1c0,0.8-0.3,1.5-0.9,2.1c-0.6,0.6-1.3,0.9-2.1,0.9
			c-0.8,0-1.5-0.3-2.1-0.9c-0.6-0.6-0.9-1.3-0.9-2.1c0-0.8,0.3-1.5,0.9-2.1c0.6-0.6,1.3-0.9,2.1-0.9
			C731.1,501.7,731.8,502,732.4,502.5z"/>
	</g>
</g>
</svg>
