<?xml version="1.0" encoding="utf-8"?>
<!-- Generator: Adobe Illustrator 19.0.0, SVG Export Plug-In . SVG Version: 6.00 Build 0)  -->
<svg version="1.1" id="Layer_1" xmlns="http://www.w3.org/2000/svg" xmlns:xlink="http://www.w3.org/1999/xlink" x="0px" y="0px"
	 viewBox="0 0 800 800" style="enable-background:new 0 0 800 800;" xml:space="preserve">
<style type="text/css">
	.st0{fill:#FFFFFF;}
</style>
<g id="XMLID_3_">
	<path id="XMLID_13_" class="st0" d="M400.5,216.9C187,216.9,14,292,14,384.6s173,167.7,386.5,167.7S787,477.3,787,384.6
		S614,216.9,400.5,216.9z M400.5,541.4c-187,0-338.5-69.7-338.5-155.7s151.6-155.7,338.5-155.7S739,299.8,739,385.7
		S587.5,541.4,400.5,541.4z"/>
	<g id="XMLID_2_">
		<path id="XMLID_1_" class="st0" d="M222.3,441.1h-23.6v-94.3h-34v-8.3c0-7.8,6.3-14.1,14.1-14.1h79v22.5h-35.6V441.1z"/>
		<path id="XMLID_6_" class="st0" d="M464.7,440.7h23.9v-77.9c0-6.2-5-11.2-11.2-11.2h-12.7V440.7z"/>
		<path id="XMLID_7_" class="st0" d="M488.7,344.6h-23.9v-19.7h11.7c6.8,0,12.3,5.5,12.3,12.3V344.6z"/>
		<path id="XMLID_8_" class="st0" d="M425.9,351.6h-11.8c-8.4,0-16.1,3.4-21.7,8.9c-5.6-5.5-13.3-8.9-21.7-8.9h-11.8
			c-17.3,0-31.4,14.2-31.4,31.8v57.7h21.8v-57.3c0-9.3,7.5-16.9,16.7-16.9s16.7,7.6,16.7,16.9v57.3h0.1H402h2.4v-56.7
			c0-9,6.7-16.9,15.6-17.5c9.7-0.6,17.8,7.2,17.8,16.9v43.3c0,7.7,6.2,14,13.8,14h5.7v-57.7C457.2,365.8,443.2,351.6,425.9,351.6z"
			/>
		<path id="XMLID_10_" class="st0" d="M632.1,440.7H656v-77.9c0-6.2-5-11.2-11.2-11.2h-12.7V440.7z"/>
		<path id="XMLID_9_" class="st0" d="M656,344.6h-23.9v-19.7h11.7c6.8,0,12.3,5.5,12.3,12.3V344.6z"/>
		<path id="XMLID_4_" class="st0" d="M593.2,351.6h-11.8c-8.4,0-16.1,3.4-21.7,8.9c-5.6-5.5-13.3-8.9-21.7-8.9h-11.8
			c-17.3,0-31.4,14.2-31.4,31.8v57.7h21.8v-57.3c0-9.3,7.5-16.9,16.7-16.9c9.2,0,16.7,7.6,16.7,16.9v57.3h0.1h19.3h2.4v-56.7
			c0-9,6.7-16.9,15.6-17.5c9.7-0.6,17.8,7.2,17.8,16.9v43.3c0,7.7,6.2,14,13.8,14h5.7v-57.7C624.6,365.8,610.5,351.6,593.2,351.6z"
			/>
		<path id="XMLID_20_" class="st0" d="M306.3,354.4c-2.5-1.3-5.2-2.1-8-2.5c-26.4-3.5-46.6,0.5-50.3,23.8l22.3-0.4
			c5.5-7.7,17.8-8.2,23.8-3.3c6.6,5.4,4.5,11.5-3.9,13c-27.5,4.7-42.3,8.7-44.8,23.9c-1.6,18.8,6.1,29.8,22.2,34
			c6.7,1.7,13.8,1.7,20.6,0.6c13.4-2.2,23.8-7.4,28.4-18.2c1.5-3.5,2.1-7.3,2.2-11.1C319.4,390.3,323.8,363.9,306.3,354.4z
			 M275.2,426.3c-5.3-0.8-9.5-5.3-9.5-10.6c-0.1-10.8,16.1-14.6,32.7-18.2C300.5,418.8,293.4,429.1,275.2,426.3z"/>
	</g>
</g>
</svg>
